<?xml version="1.0" encoding="iso-8859-1"?>
<!-- Generator: Adobe Illustrator 19.0.0, SVG Export Plug-In . SVG Version: 6.00 Build 0)  -->
<svg version="1.1" id="Capa_1" xmlns="http://www.w3.org/2000/svg" xmlns:xlink="http://www.w3.org/1999/xlink" x="0px" y="0px"
	 viewBox="0 0 512.002 512.002" style="enable-background:new 0 0 512.002 512.002;" xml:space="preserve">
<g>
	<g>
		<path d="M503.468,460.802h-34.137v-179.2v-51.2c0-14.114-11.486-25.6-25.6-25.6h-153.6v-76.8c0-4.71-3.823-8.533-8.533-8.533
			h-17.067v-18.143c5.851-1.5,11.219-4.541,15.599-8.927c10.837-10.829,13.116-27.682,5.555-40.986l-2.278-3.942
			c-2.372-4.079-4.625-7.927-6.349-11.904L263.823,5.129C262.466,2.022,259.394,0,255.997,0c-3.396,0-6.468,2.022-7.825,5.129
			l-13.235,30.438c-1.724,3.977-3.977,7.825-6.349,11.904l-2.278,3.942c-7.561,13.303-5.282,30.157,5.555,40.986
			c4.38,4.386,9.748,7.427,15.599,8.927v18.143h-17.067c-4.71,0-8.533,3.823-8.533,8.533v76.8h-153.6
			c-14.114,0-25.6,11.486-25.6,25.6v51.2v179.2H8.534c-4.719,0-8.533,3.823-8.533,8.533c0,23.526,19.14,42.667,42.667,42.667
			h426.667c23.518,0,42.667-19.14,42.667-42.667C512.001,464.625,508.178,460.802,503.468,460.802z M241.149,59.844l2.185-3.78
			c2.517-4.318,5.12-8.789,7.253-13.688l5.41-12.442l5.41,12.442c2.133,4.898,4.736,9.37,7.253,13.688l2.185,3.78
			c3.78,6.647,2.637,15.07-2.782,20.489c-6.451,6.451-17.681,6.46-24.132,0C238.513,74.914,237.369,66.492,241.149,59.844z
			 M238.931,136.535h34.133v68.267h-34.133V136.535z M68.264,221.868h162.133h51.2h162.133c4.71,0,8.533,3.831,8.533,8.533v42.667
			H263.242c-18.108,0-32.845,14.737-32.845,32.845v33.971c0,9.728-7.236,18.022-16.137,18.492c-4.787,0.213-9.25-1.408-12.672-4.659
			c-3.43-3.251-5.325-7.654-5.325-12.382v-59.733c0-4.71-3.823-8.533-8.533-8.533s-8.533,3.823-8.533,8.533
			c0,9.412-7.654,17.067-17.067,17.067c-9.412,0-17.067-7.654-17.067-17.067c0-4.71-3.823-8.533-8.533-8.533h-76.8v-42.667
			C59.731,225.7,63.562,221.868,68.264,221.868z M59.731,290.135h69.342c3.806,14.703,17.186,25.6,33.058,25.6
			c6.212,0,12.041-1.664,17.067-4.582v30.182c0,9.318,3.883,18.347,10.641,24.764c6.861,6.511,15.77,9.847,25.31,9.318
			c18.125-0.947,32.316-16.555,32.316-35.533v-33.971c0-8.704,7.074-15.778,15.778-15.778h189.022v170.667H59.731V290.135z
			 M469.334,494.935H42.668c-11.128,0-20.617-7.134-24.141-17.067h32.671h409.6h32.677
			C489.951,487.801,480.453,494.935,469.334,494.935z"/>
	</g>
</g>
<g>
</g>
<g>
</g>
<g>
</g>
<g>
</g>
<g>
</g>
<g>
</g>
<g>
</g>
<g>
</g>
<g>
</g>
<g>
</g>
<g>
</g>
<g>
</g>
<g>
</g>
<g>
</g>
<g>
</g>
</svg>
