<svg height="512" viewBox="0 0 64 64" width="512" xmlns="http://www.w3.org/2000/svg"><g id="Robot-3" data-name="Robot"><path d="m43 30.8v-6.8h-22v6.8l5.659 13.2h10.682zm-7 8.2a1 1 0 0 1 -1 1h-6a1 1 0 0 1 -1-1v-5h-3a1 1 0 0 1 -1-1v-6a1 1 0 0 1 1-1h14a1 1 0 0 1 1 1v6a1 1 0 0 1 -1 1h-3z"/><path d="m12.3 27.635-4.612 4.612a2 2 0 0 0 0 2.825 2.046 2.046 0 0 0 2.825 0l4.554-4.554a9.064 9.064 0 0 1 -2.767-2.883z"/><path d="m17 47v1h2v2h-2v2h2v2h-2v2h2v2h-2v1a1 1 0 0 0 1 1h3v-14h-3a1 1 0 0 0 -1 1z"/><path d="m26 28h12v4h-12z"/><path d="m29 46h6v4h-6z"/><path d="m56.313 35.071a2 2 0 0 0 0-2.823l-4.613-4.613a9.064 9.064 0 0 1 -2.767 2.884l4.554 4.554a2.048 2.048 0 0 0 2.825 0z"/><path d="m30 34h4v4h-4z"/><path d="m50.929 24h-5.929v5.929a7.016 7.016 0 0 0 5.929-5.929z"/><path d="m37 48h2v2h-2v2h2v2h-2v2h2v2h-2v1a1 1 0 0 0 1 1h3v-14h-4z"/><path d="m43 4h-22a1 1 0 0 0 -1 1v12a1 1 0 0 0 1 1h22a1 1 0 0 0 1-1v-12a1 1 0 0 0 -1-1zm-1 7a1 1 0 0 1 -1 1h-6v3a1 1 0 0 1 -1 1h-4a1 1 0 0 1 -1-1v-3h-6a1 1 0 0 1 -1-1v-4a1 1 0 0 1 1-1h18a1 1 0 0 1 1 1z"/><path d="m27 20h10v2h-10z"/><path d="m47 59v-1h-2v-2h2v-2h-2v-2h2v-2h-2v-2h2v-1a1 1 0 0 0 -1-1h-3v14h3a1 1 0 0 0 1-1z"/><path d="m27 59v-1h-2v-2h2v-2h-2v-2h2v-2h-2v-2h2v-2h-4v14h3a1 1 0 0 0 1-1z"/><path d="m24 10h6a1 1 0 0 1 1 1v3h2v-3a1 1 0 0 1 1-1h6v-2h-16z"/><path d="m19 24h-5.929a7.016 7.016 0 0 0 5.929 5.929z"/><path d="m56.313 40.728a4 4 0 0 1 5.658-5.657l-1.414 1.414a2 2 0 0 0 -2.829 2.829z"/><path d="m7.687 40.728-1.415-1.414a2 2 0 0 0 -2.829-2.829l-1.414-1.414a4 4 0 0 1 5.658 5.657z"/></g></svg>